{
    "asset" : {
        "generator" : "Khronos glTF Blender I/O v3.4.50",
        "version" : "2.0"
    },
    "extensionsUsed" : [
        "KHR_materials_specular",
        "KHR_materials_ior",
        "KHR_materials_unlit",
        "MSFT_texture_dds"
    ],
    "scene" : 0,
    "scenes" : [
        {
            "name" : "Scene",
            "nodes" : [
                0,
                1
            ]
        }
    ],
    "nodes" : [
        {
            "mesh" : 1,
            "name" : "skybox",
            "scale" : [
                100,
                100,
                100
            ]
        },
        {
            "mesh" : 0,
            "name" : "altimeter-body",
            "rotation" : [
                0.9658985137939453,
                0,
                0,
                0.2589210271835327
            ]
        }
    ],
    "materials" : [
        {
            "doubleSided" : true,
            "extensions" : {
                "KHR_materials_specular" : {
                    "specularColorFactor" : [
                        0.42037701944399947,
                        0.42037701944399947,
                        0.42037701944399947
                    ]
                },
                "KHR_materials_ior" : {
                    "ior" : 1.4500000476837158
                }
            },
            "name" : "altimeter",
            "normalTexture" : {
                "index" : 0,
                "scale" : 10
            },
            "pbrMetallicRoughness" : {
                "baseColorTexture" : {
                    "index" : 1
                },
                "metallicRoughnessTexture" : {
                    "index" : 2
                }
            }
        },
        {
            "name" : "Skybox",
            "extensions" : {
                "KHR_materials_unlit": {}
            },
            "pbrMetallicRoughness" : {
                "baseColorTexture" : {
                    "index" : 3
                },
                "metallicFactor" : 0,
                "roughnessFactor" : 1.0
            }
        }
    ],
    "meshes" : [
        {
            "name" : "altimeter-body.003",
            "primitives" : [
                {
                    "attributes" : {
                        "POSITION" : 0,
                        "TEXCOORD_0" : 1,
                        "NORMAL" : 2,
                        "TANGENT" : 3
                    },
                    "indices" : 4,
                    "material" : 0
                }
            ]
        },
        {
            "name" : "Sphere.001",
            "primitives" : [
                {
                    "attributes" : {
                        "POSITION" : 5,
                        "TEXCOORD_0" : 6,
                        "NORMAL" : 7,
                        "TANGENT" : 8
                    },
                    "indices" : 9,
                    "material" : 1
                }
            ]
        }
    ],
    "textures" : [
        {
            "sampler" : 0,
            "source" : 0,
            "extensions": {
              "MSFT_texture_dds": {
                "source": 3
              }
            }
        },
        {
            "sampler" : 0,
            "source" : 1,
            "extensions": {
              "MSFT_texture_dds": {
                "source": 4
              }
            }

        },
        {
            "sampler" : 0,
            "source" : 2,
            "extensions": {
              "MSFT_texture_dds": {
                "source": 5
              }
            }

        },
        {
            "sampler" : 0,
            "source" : 3,
            "extensions": {
              "MSFT_texture_dds": {
                "source": 6
              }
            }

        }
    ],
    "images" : [
        {
            "mimeType" : "image/png",
            "name" : "normal",
            "uri" : "normal.png"
        },
        {
            "mimeType" : "image/png",
            "name" : "albedo",
            "uri" : "albedo.png"
        },
        {
            "mimeType" : "image/png",
            "name" : "metalness-roughness",
            "uri" : "metalness-roughness.png"
        },
        {
            "mimeType" : "image/jpeg",
            "name" : "basic-skybox",
            "uri" : "basic-skybox.jpg"
        },
        {
            "mimeType" : "image/vnd-ms.dds",
            "name" : "normal",
            "uri" : "normal.dds"
        },
        {
            "mimeType" : "image/vnd-ms.dds",
            "name" : "albedo",
            "uri" : "albedo.dds"
        },
        {
            "mimeType" : "image/vnd-ms.dds",
            "name" : "metalness-roughness",
            "uri" : "metalness-roughness.dds"
         },
        {
            "mimeType" : "image/vnd-ms.dds",
            "name" : "basic-skybox",
            "uri" : "basic-skybox.dds"
         }
    ],
    "accessors" : [
        {
            "bufferView" : 0,
            "componentType" : 5126,
            "count" : 3267,
            "max" : [
                1.2090920209884644,
                0.6057969927787781,
                1.048933982849121
            ],
            "min" : [
                -1.2137069702148438,
                -0.8141409754753113,
                -1.0621559619903564
            ],
            "type" : "VEC3"
        },
        {
            "bufferView" : 1,
            "componentType" : 5126,
            "count" : 3267,
            "type" : "VEC2"
        },
        {
            "bufferView" : 2,
            "componentType" : 5126,
            "count" : 3267,
            "type" : "VEC3"
        },
        {
            "bufferView" : 3,
            "componentType" : 5126,
            "count" : 3267,
            "type" : "VEC4"
        },
        {
            "bufferView" : 4,
            "componentType" : 5123,
            "count" : 5319,
            "type" : "SCALAR"
        },
        {
            "bufferView" : 5,
            "componentType" : 5126,
            "count" : 2870,
            "max" : [
                0.9999997019767761,
                1,
                0.9999993443489075
            ],
            "min" : [
                -0.9999990463256836,
                -1,
                -1
            ],
            "type" : "VEC3"
        },
        {
            "bufferView" : 6,
            "componentType" : 5126,
            "count" : 2870,
            "type" : "VEC2"
        },
        {
            "bufferView" : 7,
            "componentType" : 5126,
            "count" : 2870,
            "type" : "VEC3"
        },
        {
            "bufferView" : 8,
            "componentType" : 5126,
            "count" : 2870,
            "type" : "VEC4"
        },
        {
            "bufferView" : 9,
            "componentType" : 5123,
            "count" : 2880,
            "type" : "SCALAR"
        }
    ],
    "bufferViews" : [
        {
            "buffer" : 0,
            "byteLength" : 39204,
            "byteOffset" : 0,
            "target" : 34962
        },
        {
            "buffer" : 0,
            "byteLength" : 26136,
            "byteOffset" : 39204,
            "target" : 34962
        },
        {
            "buffer" : 0,
            "byteLength" : 39204,
            "byteOffset" : 65340,
            "target" : 34962
        },
        {
            "buffer" : 0,
            "byteLength" : 52272,
            "byteOffset" : 104544,
            "target" : 34962
        },
        {
            "buffer" : 0,
            "byteLength" : 10638,
            "byteOffset" : 156816,
            "target" : 34963
        },
        {
            "buffer" : 0,
            "byteLength" : 34440,
            "byteOffset" : 167456,
            "target" : 34962
        },
        {
            "buffer" : 0,
            "byteLength" : 22960,
            "byteOffset" : 201896,
            "target" : 34962
        },
        {
            "buffer" : 0,
            "byteLength" : 34440,
            "byteOffset" : 224856,
            "target" : 34962
        },
        {
            "buffer" : 0,
            "byteLength" : 45920,
            "byteOffset" : 259296,
            "target" : 34962
        },
        {
            "buffer" : 0,
            "byteLength" : 5760,
            "byteOffset" : 305216,
            "target" : 34963
        }
    ],
    "samplers" : [
        {
            "magFilter" : 9729,
            "minFilter" : 9987
        }
    ],
    "buffers" : [
        {
            "byteLength" : 310976,
            "uri" : "altimeter.bin"
        }
    ]
}
