{
	"asset":{
		"generator":"Khronos glTF Blender I/O v3.6.27",
		"version":"2.0"
	},
	"extensionsUsed":[
		"KHR_lights_punctual",
		"KHR_materials_unlit"
	],
	"extensionsRequired":[
		"KHR_lights_punctual"
	],
	"extensions":{
		"KHR_lights_punctual":{
			"lights":[
				{
					"color":[
						1,
						1,
						1
					],
					"intensity":54351.41306588226,
					"type":"point",
					"name":"Light"
				}
			]
		}
	},
	"scene":0,
	"scenes":[
		{
			"name":"Scene",
			"nodes":[
				0,
				1,
				2,
				3,
				4,
				5,
				6
			]
		}
	],
	"nodes":[
		{
			"extensions":{
				"KHR_lights_punctual":{
					"light":0
				}
			},
			"name":"Light",
			"rotation":[
				-0.28416627645492554,
				0.7269423007965088,
				0.34203392267227173,
				0.5232754945755005
			],
			"translation":[
				4.321887016296387,
				10.175521850585938,
				7.67189884185791
			]
		},
		{
			"camera":0,
			"name":"Camera",
			"rotation":[
				-0.1437668651342392,
				0.1878369301557541,
				0.02780498005449772,
				0.9712236523628235
			],
			"translation":[
				15.394658088684082,
				15.355708122253418,
				43.05995178222656
			]
		},
		{
			"mesh":0,
			"name":"BlueMaterial",
			"translation":[
				8.335060119628906,
				1,
				0
			]
		},
		{
			"mesh":1,
			"name":"NoMaterial",
			"scale":[
				12.5,
				1,
				12.5
			]
		},
		{
			"mesh":2,
			"name":"DrawImage",
			"rotation":[
				0.7071068286895752,
				0,
				0,
				0.7071068286895752
			],
			"scale":[
				2,
				1,
				2
			],
			"translation":[
				-6,
				4.73565149307251,
				-4.075068950653076
			]
		},
		{
			"mesh":3,
			"name":"DrawTexture",
			"rotation":[
				0.7071068286895752,
				0,
				0,
				0.7071068286895752
			],
			"scale":[
				2,
				1,
				2
			],
			"translation":[
				6,
				4.73565149307251,
				-4.075068950653076
			]
		},
		{
			"mesh":4,
			"name":"Text",
			"rotation":[
				0.6743797659873962,
				0.21263107657432556,
				-0.21263109147548676,
				0.6743797063827515
			],
			"scale":[
				3.500000238418579,
				3.500000238418579,
				3.5
			],
			"translation":[
				-3.3565690517425537,
				0.9469887018203735,
				3.0683255195617676
			]
		}
	],
	"cameras":[
		{
			"name":"Camera",
			"perspective":{
				"aspectRatio":1.7777777777777777,
				"yfov":0.39959652046304894,
				"zfar":100,
				"znear":0.10000000149011612
			},
			"type":"perspective"
		}
	],
	"materials":[
		{
			"doubleSided":true,
			"name":"BlueMaterial",
			"pbrMetallicRoughness":{
				"baseColorFactor":[
					0,
					0.13477247953414917,
					1,
					1
				],
				"metallicFactor":0,
				"roughnessFactor":0.5
			}
		},
		{
			"doubleSided":true,
			"extensions":{
				"KHR_materials_unlit":{}
			},
			"name":"DrawImage",
			"pbrMetallicRoughness":{
				"baseColorTexture":{
					"index":0,
					"texCoord":0
				},
				"metallicFactor":0,
				"roughnessFactor":0.9
			}
		},
		{
			"doubleSided":true,
			"extensions":{
				"KHR_materials_unlit":{}
			},
			"name":"DrawTexture",
			"pbrMetallicRoughness":{
				"baseColorTexture":{
					"index":1,
					"texCoord":0
				},
				"metallicFactor":0,
				"roughnessFactor":0.9
			}
		},
		{
			"doubleSided":true,
			"name":"GoldMaterial",
			"pbrMetallicRoughness":{
				"baseColorFactor":[
					0.8000000715255737,
					0.33724743127822876,
					0,
					1
				],
				"metallicFactor":0,
				"roughnessFactor":0.5
			}
		}
	],
	"meshes":[
		{
			"name":"BlueMaterial",
			"primitives":[
				{
					"attributes":{
						"POSITION":0,
						"NORMAL":1,
						"TEXCOORD_0":2,
						"TANGENT":3
					},
					"indices":4,
					"material":0
				}
			]
		},
		{
			"name":"NoMaterial",
			"primitives":[
				{
					"attributes":{
						"POSITION":5,
						"NORMAL":6,
						"TEXCOORD_0":7,
						"TANGENT":8
					},
					"indices":9
				}
			]
		},
		{
			"name":"DrawImage",
			"primitives":[
				{
					"attributes":{
						"POSITION":10,
						"NORMAL":11,
						"TEXCOORD_0":12,
						"TANGENT":13
					},
					"indices":9,
					"material":1
				}
			]
		},
		{
			"name":"DrawTexture",
			"primitives":[
				{
					"attributes":{
						"POSITION":14,
						"NORMAL":15,
						"TEXCOORD_0":16,
						"TANGENT":17
					},
					"indices":9,
					"material":2
				}
			]
		},
		{
			"name":"Text",
			"primitives":[
				{
					"attributes":{
						"POSITION":18,
						"NORMAL":19,
						"TEXCOORD_0":20,
						"TANGENT":21
					},
					"indices":22,
					"material":3
				}
			]
		}
	],
	"textures":[
		{
			"sampler":0,
			"source":0
		},
		{
			"sampler":0,
			"source":1
		}
	],
	"images":[
		{
			"bufferView":14,
			"mimeType":"image/jpeg",
			"name":"box_panel"
		},
		{
			"bufferView":19,
			"mimeType":"image/jpeg",
			"name":"hanging_lights"
		}
	],
	"accessors":[
		{
			"bufferView":0,
			"componentType":5126,
			"count":24,
			"max":[
				1,
				1,
				1
			],
			"min":[
				-1,
				-1,
				-1
			],
			"type":"VEC3"
		},
		{
			"bufferView":1,
			"componentType":5126,
			"count":24,
			"type":"VEC3"
		},
		{
			"bufferView":2,
			"componentType":5126,
			"count":24,
			"type":"VEC2"
		},
		{
			"bufferView":3,
			"componentType":5126,
			"count":24,
			"type":"VEC4"
		},
		{
			"bufferView":4,
			"componentType":5123,
			"count":36,
			"type":"SCALAR"
		},
		{
			"bufferView":5,
			"componentType":5126,
			"count":4,
			"max":[
				1,
				0,
				1
			],
			"min":[
				-1,
				0,
				-1
			],
			"type":"VEC3"
		},
		{
			"bufferView":6,
			"componentType":5126,
			"count":4,
			"type":"VEC3"
		},
		{
			"bufferView":7,
			"componentType":5126,
			"count":4,
			"type":"VEC2"
		},
		{
			"bufferView":8,
			"componentType":5126,
			"count":4,
			"type":"VEC4"
		},
		{
			"bufferView":9,
			"componentType":5123,
			"count":6,
			"type":"SCALAR"
		},
		{
			"bufferView":10,
			"componentType":5126,
			"count":4,
			"max":[
				1,
				0,
				1
			],
			"min":[
				-1,
				0,
				-1
			],
			"type":"VEC3"
		},
		{
			"bufferView":11,
			"componentType":5126,
			"count":4,
			"type":"VEC3"
		},
		{
			"bufferView":12,
			"componentType":5126,
			"count":4,
			"type":"VEC2"
		},
		{
			"bufferView":13,
			"componentType":5126,
			"count":4,
			"type":"VEC4"
		},
		{
			"bufferView":15,
			"componentType":5126,
			"count":4,
			"max":[
				1,
				0,
				1
			],
			"min":[
				-1,
				0,
				-1
			],
			"type":"VEC3"
		},
		{
			"bufferView":16,
			"componentType":5126,
			"count":4,
			"type":"VEC3"
		},
		{
			"bufferView":17,
			"componentType":5126,
			"count":4,
			"type":"VEC2"
		},
		{
			"bufferView":18,
			"componentType":5126,
			"count":4,
			"type":"VEC4"
		},
		{
			"bufferView":20,
			"componentType":5126,
			"count":9955,
			"max":[
				2.486886978149414,
				0.11999999731779099,
				0.25971028208732605
			],
			"min":[
				-1.642876148223877,
				-0.11999999731779099,
				-0.3513076901435852
			],
			"type":"VEC3"
		},
		{
			"bufferView":21,
			"componentType":5126,
			"count":9955,
			"type":"VEC3"
		},
		{
			"bufferView":22,
			"componentType":5126,
			"count":9955,
			"type":"VEC2"
		},
		{
			"bufferView":23,
			"componentType":5126,
			"count":9955,
			"type":"VEC4"
		},
		{
			"bufferView":24,
			"componentType":5123,
			"count":50388,
			"type":"SCALAR"
		}
	],
	"bufferViews":[
		{
			"buffer":0,
			"byteLength":288,
			"byteOffset":0,
			"target":34962
		},
		{
			"buffer":0,
			"byteLength":288,
			"byteOffset":288,
			"target":34962
		},
		{
			"buffer":0,
			"byteLength":192,
			"byteOffset":576,
			"target":34962
		},
		{
			"buffer":0,
			"byteLength":384,
			"byteOffset":768,
			"target":34962
		},
		{
			"buffer":0,
			"byteLength":72,
			"byteOffset":1152,
			"target":34963
		},
		{
			"buffer":0,
			"byteLength":48,
			"byteOffset":1224,
			"target":34962
		},
		{
			"buffer":0,
			"byteLength":48,
			"byteOffset":1272,
			"target":34962
		},
		{
			"buffer":0,
			"byteLength":32,
			"byteOffset":1320,
			"target":34962
		},
		{
			"buffer":0,
			"byteLength":64,
			"byteOffset":1352,
			"target":34962
		},
		{
			"buffer":0,
			"byteLength":12,
			"byteOffset":1416,
			"target":34963
		},
		{
			"buffer":0,
			"byteLength":48,
			"byteOffset":1428,
			"target":34962
		},
		{
			"buffer":0,
			"byteLength":48,
			"byteOffset":1476,
			"target":34962
		},
		{
			"buffer":0,
			"byteLength":32,
			"byteOffset":1524,
			"target":34962
		},
		{
			"buffer":0,
			"byteLength":64,
			"byteOffset":1556,
			"target":34962
		},
		{
			"buffer":0,
			"byteLength":1195468,
			"byteOffset":1620
		},
		{
			"buffer":0,
			"byteLength":48,
			"byteOffset":1197088,
			"target":34962
		},
		{
			"buffer":0,
			"byteLength":48,
			"byteOffset":1197136,
			"target":34962
		},
		{
			"buffer":0,
			"byteLength":32,
			"byteOffset":1197184,
			"target":34962
		},
		{
			"buffer":0,
			"byteLength":64,
			"byteOffset":1197216,
			"target":34962
		},
		{
			"buffer":0,
			"byteLength":231425,
			"byteOffset":1197280
		},
		{
			"buffer":0,
			"byteLength":119460,
			"byteOffset":1428708,
			"target":34962
		},
		{
			"buffer":0,
			"byteLength":119460,
			"byteOffset":1548168,
			"target":34962
		},
		{
			"buffer":0,
			"byteLength":79640,
			"byteOffset":1667628,
			"target":34962
		},
		{
			"buffer":0,
			"byteLength":159280,
			"byteOffset":1747268,
			"target":34962
		},
		{
			"buffer":0,
			"byteLength":100776,
			"byteOffset":1906548,
			"target":34963
		}
	],
	"samplers":[
		{
			"magFilter":9729,
			"minFilter":9987
		}
	],
	"buffers":[
		{
			"byteLength":2007324,
			"uri":"data:application/octet-stream;base64,"
		}
	]
}
