{
	"asset":{
		"generator":"Khronos glTF Blender I/O v3.6.27",
		"version":"2.0"
	},
	"extensionsUsed":[
		"KHR_lights_punctual"
	],
	"extensionsRequired":[
		"KHR_lights_punctual"
	],
	"extensions":{
		"KHR_lights_punctual":{
			"lights":[
				{
					"color":[
						1,
						1,
						1
					],
					"intensity":543.5141306588226,
					"type":"point",
					"name":"Point"
				}
			]
		}
	},
	"scene":0,
	"scenes":[
		{
			"name":"Scene",
			"nodes":[
				0,
				1,
				86,
				87
			]
		}
	],
	"nodes":[
		{
			"extensions":{
				"KHR_lights_punctual":{
					"light":0
				}
			},
			"name":"Point",
			"rotation":[
				-0.7071068286895752,
				0,
				0,
				0.7071068286895752
			],
			"translation":[
				-0.6970170736312866,
				2.0506680011749268,
				1.4532448053359985
			]
		},
		{
			"camera":0,
			"name":"Camera2",
			"rotation":[
				-0.2721537947654724,
				0.15939906239509583,
				0.04576772823929787,
				0.9478552341461182
			],
			"translation":[
				1.9095120429992676,
				3.874037742614746,
				5.829052925109863
			]
		},
		{
			"mesh":0,
			"name":"Sphere.003",
			"scale":[
				0.5,
				0.5,
				0.5
			],
			"translation":[
				0,
				-1,
				-1.4999990463256836
			]
		},
		{
			"mesh":0,
			"name":"Sphere.004",
			"scale":[
				0.5,
				0.5,
				0.5
			],
			"translation":[
				0,
				-1,
				1.5
			]
		},
		{
			"mesh":0,
			"name":"Sphere.005",
			"scale":[
				0.5,
				0.5,
				0.5
			],
			"translation":[
				1.4999990463256836,
				-1,
				0
			]
		},
		{
			"mesh":0,
			"name":"Sphere.006",
			"scale":[
				0.5,
				0.5,
				0.5
			],
			"translation":[
				-1.4999990463256836,
				-1,
				0
			]
		},
		{
			"children":[
				2,
				3,
				4,
				5
			],
			"mesh":0,
			"name":"Sphere_L2_1_L3_1",
			"scale":[
				0.5,
				0.5,
				0.5
			],
			"translation":[
				0,
				-1,
				-1.4999995231628418
			]
		},
		{
			"mesh":0,
			"name":"Sphere.008",
			"scale":[
				0.5,
				0.5,
				0.5
			],
			"translation":[
				0,
				-1,
				-1.4999995231628418
			]
		},
		{
			"mesh":0,
			"name":"Sphere.009",
			"scale":[
				0.5,
				0.5,
				0.5
			],
			"translation":[
				0,
				-1,
				1.4999995231628418
			]
		},
		{
			"mesh":0,
			"name":"Sphere.010",
			"scale":[
				0.5,
				0.5,
				0.5
			],
			"translation":[
				1.4999990463256836,
				-1,
				0
			]
		},
		{
			"mesh":0,
			"name":"Sphere.011",
			"scale":[
				0.5,
				0.5,
				0.5
			],
			"translation":[
				-1.4999990463256836,
				-1,
				0
			]
		},
		{
			"children":[
				7,
				8,
				9,
				10
			],
			"mesh":0,
			"name":"Sphere_L2_1_L3_2",
			"scale":[
				0.5,
				0.5,
				0.5
			],
			"translation":[
				0,
				-1,
				1.4999995231628418
			]
		},
		{
			"mesh":0,
			"name":"Sphere.013",
			"scale":[
				0.5,
				0.5,
				0.5
			],
			"translation":[
				0,
				-1,
				-1.4999990463256836
			]
		},
		{
			"mesh":0,
			"name":"Sphere.014",
			"scale":[
				0.5,
				0.5,
				0.5
			],
			"translation":[
				0,
				-1,
				1.4999995231628418
			]
		},
		{
			"mesh":0,
			"name":"Sphere.015",
			"scale":[
				0.5,
				0.5,
				0.5
			],
			"translation":[
				1.4999990463256836,
				-1,
				0
			]
		},
		{
			"mesh":0,
			"name":"Sphere.016",
			"scale":[
				0.5,
				0.5,
				0.5
			],
			"translation":[
				-1.4999990463256836,
				-1,
				0
			]
		},
		{
			"children":[
				12,
				13,
				14,
				15
			],
			"mesh":0,
			"name":"Sphere_L2_1_L3_3",
			"scale":[
				0.5,
				0.5,
				0.5
			],
			"translation":[
				1.4999990463256836,
				-1,
				0
			]
		},
		{
			"mesh":0,
			"name":"Sphere.018",
			"scale":[
				0.5,
				0.5,
				0.5
			],
			"translation":[
				0,
				-1,
				-1.4999990463256836
			]
		},
		{
			"mesh":0,
			"name":"Sphere.019",
			"scale":[
				0.5,
				0.5,
				0.5
			],
			"translation":[
				0,
				-1,
				1.4999995231628418
			]
		},
		{
			"mesh":0,
			"name":"Sphere.020",
			"scale":[
				0.5,
				0.5,
				0.5
			],
			"translation":[
				1.4999990463256836,
				-1,
				0
			]
		},
		{
			"mesh":0,
			"name":"Sphere.021",
			"scale":[
				0.5,
				0.5,
				0.5
			],
			"translation":[
				-1.4999990463256836,
				-1,
				0
			]
		},
		{
			"children":[
				17,
				18,
				19,
				20
			],
			"mesh":0,
			"name":"Sphere_L2_1_L3_4",
			"scale":[
				0.5,
				0.5,
				0.5
			],
			"translation":[
				-1.4999990463256836,
				-1,
				0
			]
		},
		{
			"children":[
				6,
				11,
				16,
				21
			],
			"mesh":0,
			"name":"Sphere_L2_1",
			"scale":[
				0.5,
				0.5,
				0.5
			],
			"translation":[
				0,
				-1.0000001192092896,
				-1.4999995231628418
			]
		},
		{
			"mesh":0,
			"name":"Sphere.024",
			"scale":[
				0.5,
				0.5,
				0.5
			],
			"translation":[
				0,
				-1,
				-1.4999995231628418
			]
		},
		{
			"mesh":0,
			"name":"Sphere.025",
			"scale":[
				0.5,
				0.5,
				0.5
			],
			"translation":[
				0,
				-1,
				1.4999995231628418
			]
		},
		{
			"mesh":0,
			"name":"Sphere.026",
			"scale":[
				0.5,
				0.5,
				0.5
			],
			"translation":[
				1.4999990463256836,
				-1,
				0
			]
		},
		{
			"mesh":0,
			"name":"Sphere.027",
			"scale":[
				0.5,
				0.5,
				0.5
			],
			"translation":[
				-1.4999990463256836,
				-1,
				0
			]
		},
		{
			"children":[
				23,
				24,
				25,
				26
			],
			"mesh":0,
			"name":"Sphere_L2_2_L3_1",
			"scale":[
				0.5,
				0.5,
				0.5
			],
			"translation":[
				0,
				-1,
				-1.4999995231628418
			]
		},
		{
			"mesh":0,
			"name":"Sphere.029",
			"scale":[
				0.5,
				0.5,
				0.5
			],
			"translation":[
				0,
				-1,
				-1.5
			]
		},
		{
			"mesh":0,
			"name":"Sphere.030",
			"scale":[
				0.5,
				0.5,
				0.5
			],
			"translation":[
				0,
				-1,
				1.4999990463256836
			]
		},
		{
			"mesh":0,
			"name":"Sphere.031",
			"scale":[
				0.5,
				0.5,
				0.5
			],
			"translation":[
				1.4999990463256836,
				-1,
				0
			]
		},
		{
			"mesh":0,
			"name":"Sphere.032",
			"scale":[
				0.5,
				0.5,
				0.5
			],
			"translation":[
				-1.4999990463256836,
				-1,
				0
			]
		},
		{
			"children":[
				28,
				29,
				30,
				31
			],
			"mesh":0,
			"name":"Sphere_L2_2_L3_2",
			"scale":[
				0.5,
				0.5,
				0.5
			],
			"translation":[
				0,
				-1,
				1.4999995231628418
			]
		},
		{
			"mesh":0,
			"name":"Sphere.034",
			"scale":[
				0.5,
				0.5,
				0.5
			],
			"translation":[
				0,
				-1,
				-1.4999995231628418
			]
		},
		{
			"mesh":0,
			"name":"Sphere.035",
			"scale":[
				0.5,
				0.5,
				0.5
			],
			"translation":[
				0,
				-1,
				1.4999990463256836
			]
		},
		{
			"mesh":0,
			"name":"Sphere.036",
			"scale":[
				0.5,
				0.5,
				0.5
			],
			"translation":[
				1.4999990463256836,
				-1,
				0
			]
		},
		{
			"mesh":0,
			"name":"Sphere.037",
			"scale":[
				0.5,
				0.5,
				0.5
			],
			"translation":[
				-1.4999990463256836,
				-1,
				0
			]
		},
		{
			"children":[
				33,
				34,
				35,
				36
			],
			"mesh":0,
			"name":"Sphere_L2_2_L3_3",
			"scale":[
				0.5,
				0.5,
				0.5
			],
			"translation":[
				1.4999990463256836,
				-1,
				0
			]
		},
		{
			"mesh":0,
			"name":"Sphere.039",
			"scale":[
				0.5,
				0.5,
				0.5
			],
			"translation":[
				0,
				-1,
				-1.4999995231628418
			]
		},
		{
			"mesh":0,
			"name":"Sphere.040",
			"scale":[
				0.5,
				0.5,
				0.5
			],
			"translation":[
				0,
				-1,
				1.4999990463256836
			]
		},
		{
			"mesh":0,
			"name":"Sphere.041",
			"scale":[
				0.5,
				0.5,
				0.5
			],
			"translation":[
				1.4999990463256836,
				-1,
				0
			]
		},
		{
			"mesh":0,
			"name":"Sphere.042",
			"scale":[
				0.5,
				0.5,
				0.5
			],
			"translation":[
				-1.4999990463256836,
				-1,
				0
			]
		},
		{
			"children":[
				38,
				39,
				40,
				41
			],
			"mesh":0,
			"name":"Sphere_L2_2_L3_4",
			"scale":[
				0.5,
				0.5,
				0.5
			],
			"translation":[
				-1.4999990463256836,
				-1,
				0
			]
		},
		{
			"children":[
				27,
				32,
				37,
				42
			],
			"mesh":0,
			"name":"Sphere_L2_2",
			"scale":[
				0.5,
				0.5,
				0.5
			],
			"translation":[
				0,
				-1.0000001192092896,
				1.4999995231628418
			]
		},
		{
			"mesh":0,
			"name":"Sphere.045",
			"scale":[
				0.5,
				0.5,
				0.5
			],
			"translation":[
				0,
				-1,
				-1.4999995231628418
			]
		},
		{
			"mesh":0,
			"name":"Sphere.046",
			"scale":[
				0.5,
				0.5,
				0.5
			],
			"translation":[
				0,
				-1,
				1.4999995231628418
			]
		},
		{
			"mesh":0,
			"name":"Sphere.047",
			"scale":[
				0.5,
				0.5,
				0.5
			],
			"translation":[
				1.4999995231628418,
				-1,
				0
			]
		},
		{
			"mesh":0,
			"name":"Sphere.048",
			"scale":[
				0.5,
				0.5,
				0.5
			],
			"translation":[
				-1.4999990463256836,
				-1,
				0
			]
		},
		{
			"children":[
				44,
				45,
				46,
				47
			],
			"mesh":0,
			"name":"Sphere_L2_3_L3_1",
			"scale":[
				0.5,
				0.5,
				0.5
			],
			"translation":[
				0,
				-1,
				-1.4999995231628418
			]
		},
		{
			"mesh":0,
			"name":"Sphere.050",
			"scale":[
				0.5,
				0.5,
				0.5
			],
			"translation":[
				0,
				-1,
				-1.4999995231628418
			]
		},
		{
			"mesh":0,
			"name":"Sphere.051",
			"scale":[
				0.5,
				0.5,
				0.5
			],
			"translation":[
				0,
				-1,
				1.4999995231628418
			]
		},
		{
			"mesh":0,
			"name":"Sphere.052",
			"scale":[
				0.5,
				0.5,
				0.5
			],
			"translation":[
				1.4999995231628418,
				-1,
				0
			]
		},
		{
			"mesh":0,
			"name":"Sphere.053",
			"scale":[
				0.5,
				0.5,
				0.5
			],
			"translation":[
				-1.4999990463256836,
				-1,
				0
			]
		},
		{
			"children":[
				49,
				50,
				51,
				52
			],
			"mesh":0,
			"name":"Sphere_L2_3_L3_2",
			"scale":[
				0.5,
				0.5,
				0.5
			],
			"translation":[
				0,
				-1,
				1.4999995231628418
			]
		},
		{
			"mesh":0,
			"name":"Sphere.055",
			"scale":[
				0.5,
				0.5,
				0.5
			],
			"translation":[
				0,
				-1,
				-1.4999995231628418
			]
		},
		{
			"mesh":0,
			"name":"Sphere.056",
			"scale":[
				0.5,
				0.5,
				0.5
			],
			"translation":[
				0,
				-1,
				1.4999995231628418
			]
		},
		{
			"mesh":0,
			"name":"Sphere.057",
			"scale":[
				0.5,
				0.5,
				0.5
			],
			"translation":[
				1.4999990463256836,
				-1,
				0
			]
		},
		{
			"mesh":0,
			"name":"Sphere.058",
			"scale":[
				0.5,
				0.5,
				0.5
			],
			"translation":[
				-1.4999985694885254,
				-1,
				0
			]
		},
		{
			"children":[
				54,
				55,
				56,
				57
			],
			"mesh":0,
			"name":"Sphere_L2_3_L3_3",
			"scale":[
				0.5,
				0.5,
				0.5
			],
			"translation":[
				1.4999990463256836,
				-1,
				0
			]
		},
		{
			"mesh":0,
			"name":"Sphere.060",
			"scale":[
				0.5,
				0.5,
				0.5
			],
			"translation":[
				0,
				-1,
				-1.4999995231628418
			]
		},
		{
			"mesh":0,
			"name":"Sphere.061",
			"scale":[
				0.5,
				0.5,
				0.5
			],
			"translation":[
				0,
				-1,
				1.4999995231628418
			]
		},
		{
			"mesh":0,
			"name":"Sphere.062",
			"scale":[
				0.5,
				0.5,
				0.5
			],
			"translation":[
				1.4999990463256836,
				-1,
				0
			]
		},
		{
			"mesh":0,
			"name":"Sphere.063",
			"scale":[
				0.5,
				0.5,
				0.5
			],
			"translation":[
				-1.4999990463256836,
				-1,
				0
			]
		},
		{
			"children":[
				59,
				60,
				61,
				62
			],
			"mesh":0,
			"name":"Sphere_L2_3_L3_4",
			"scale":[
				0.5,
				0.5,
				0.5
			],
			"translation":[
				-1.4999990463256836,
				-1,
				0
			]
		},
		{
			"children":[
				48,
				53,
				58,
				63
			],
			"mesh":0,
			"name":"Sphere_L2_3",
			"scale":[
				0.5,
				0.5,
				0.5
			],
			"translation":[
				1.4999990463256836,
				-1.0000001192092896,
				0
			]
		},
		{
			"mesh":0,
			"name":"Sphere.066",
			"scale":[
				0.5,
				0.5,
				0.5
			],
			"translation":[
				0,
				-1,
				-1.4999995231628418
			]
		},
		{
			"mesh":0,
			"name":"Sphere.067",
			"scale":[
				0.5,
				0.5,
				0.5
			],
			"translation":[
				0,
				-1,
				1.4999995231628418
			]
		},
		{
			"mesh":0,
			"name":"Sphere.068",
			"scale":[
				0.5,
				0.5,
				0.5
			],
			"translation":[
				1.4999990463256836,
				-1,
				0
			]
		},
		{
			"mesh":0,
			"name":"Sphere.069",
			"scale":[
				0.5,
				0.5,
				0.5
			],
			"translation":[
				-1.4999995231628418,
				-1,
				0
			]
		},
		{
			"children":[
				65,
				66,
				67,
				68
			],
			"mesh":0,
			"name":"Sphere_L2_4_L3_1",
			"scale":[
				0.5,
				0.5,
				0.5
			],
			"translation":[
				0,
				-1,
				-1.4999995231628418
			]
		},
		{
			"mesh":0,
			"name":"Sphere.071",
			"scale":[
				0.5,
				0.5,
				0.5
			],
			"translation":[
				0,
				-1,
				-1.4999995231628418
			]
		},
		{
			"mesh":0,
			"name":"Sphere.072",
			"scale":[
				0.5,
				0.5,
				0.5
			],
			"translation":[
				0,
				-1,
				1.4999995231628418
			]
		},
		{
			"mesh":0,
			"name":"Sphere.073",
			"scale":[
				0.5,
				0.5,
				0.5
			],
			"translation":[
				1.4999990463256836,
				-1,
				0
			]
		},
		{
			"mesh":0,
			"name":"Sphere.074",
			"scale":[
				0.5,
				0.5,
				0.5
			],
			"translation":[
				-1.4999995231628418,
				-1,
				0
			]
		},
		{
			"children":[
				70,
				71,
				72,
				73
			],
			"mesh":0,
			"name":"Sphere_L2_4_L3_2",
			"scale":[
				0.5,
				0.5,
				0.5
			],
			"translation":[
				0,
				-1,
				1.4999995231628418
			]
		},
		{
			"mesh":0,
			"name":"Sphere.076",
			"scale":[
				0.5,
				0.5,
				0.5
			],
			"translation":[
				0,
				-1,
				-1.4999995231628418
			]
		},
		{
			"mesh":0,
			"name":"Sphere.077",
			"scale":[
				0.5,
				0.5,
				0.5
			],
			"translation":[
				0,
				-1,
				1.4999995231628418
			]
		},
		{
			"mesh":0,
			"name":"Sphere.078",
			"scale":[
				0.5,
				0.5,
				0.5
			],
			"translation":[
				1.4999990463256836,
				-1,
				0
			]
		},
		{
			"mesh":0,
			"name":"Sphere.079",
			"scale":[
				0.5,
				0.5,
				0.5
			],
			"translation":[
				-1.4999990463256836,
				-1,
				0
			]
		},
		{
			"children":[
				75,
				76,
				77,
				78
			],
			"mesh":0,
			"name":"Sphere_L2_4_L3_3",
			"scale":[
				0.5,
				0.5,
				0.5
			],
			"translation":[
				1.4999990463256836,
				-1,
				0
			]
		},
		{
			"mesh":0,
			"name":"Sphere.081",
			"scale":[
				0.5,
				0.5,
				0.5
			],
			"translation":[
				0,
				-1,
				-1.4999995231628418
			]
		},
		{
			"mesh":0,
			"name":"Sphere.082",
			"scale":[
				0.5,
				0.5,
				0.5
			],
			"translation":[
				0,
				-1,
				1.4999995231628418
			]
		},
		{
			"mesh":0,
			"name":"Sphere.083",
			"scale":[
				0.5,
				0.5,
				0.5
			],
			"translation":[
				1.4999985694885254,
				-1,
				0
			]
		},
		{
			"mesh":0,
			"name":"Sphere.084",
			"scale":[
				0.5,
				0.5,
				0.5
			],
			"translation":[
				-1.4999990463256836,
				-1,
				0
			]
		},
		{
			"children":[
				80,
				81,
				82,
				83
			],
			"mesh":0,
			"name":"Sphere_L2_4_L3_4",
			"scale":[
				0.5,
				0.5,
				0.5
			],
			"translation":[
				-1.4999990463256836,
				-1,
				0
			]
		},
		{
			"children":[
				69,
				74,
				79,
				84
			],
			"mesh":0,
			"name":"Sphere_L2_4",
			"scale":[
				0.5,
				0.5,
				0.5
			],
			"translation":[
				-1.4999990463256836,
				-1.0000001192092896,
				0
			]
		},
		{
			"children":[
				22,
				43,
				64,
				85
			],
			"mesh":0,
			"name":"TopLevelSphere",
			"scale":[
				0.5000002980232239,
				0.5,
				0.5000001788139343
			],
			"translation":[
				0,
				0.9501166939735413,
				0
			]
		},
		{
			"mesh":1,
			"name":"Plane",
			"scale":[
				2.5,
				1,
				2.5
			]
		}
	],
	"cameras":[
		{
			"name":"Camera2",
			"perspective":{
				"aspectRatio":1.7777777777777777,
				"yfov":0.39959652046304894,
				"zfar":100,
				"znear":0.10000000149011612
			},
			"type":"perspective"
		}
	],
	"materials":[
		{
			"doubleSided":true,
			"name":"Material.001",
			"pbrMetallicRoughness":{
				"baseColorFactor":[
					0.1319151222705841,
					0.06884943693876266,
					0.8000000715255737,
					1
				],
				"metallicFactor":0,
				"roughnessFactor":0.5
			}
		},
		{
			"doubleSided":true,
			"name":"Material",
			"pbrMetallicRoughness":{
				"baseColorFactor":[
					0.4000000059604645,
					0.4000000059604645,
					0.4000000059604645,
					1
				],
				"metallicFactor":0,
				"roughnessFactor":0.5
			}
		}
	],
	"meshes":[
		{
			"name":"Sphere.028",
			"primitives":[
				{
					"attributes":{
						"POSITION":0,
						"NORMAL":1,
						"TEXCOORD_0":2,
						"TANGENT":3
					},
					"indices":4,
					"material":0
				}
			]
		},
		{
			"name":"Plane",
			"primitives":[
				{
					"attributes":{
						"POSITION":5,
						"NORMAL":6,
						"TEXCOORD_0":7,
						"TANGENT":8
					},
					"indices":9,
					"material":1
				}
			]
		}
	],
	"accessors":[
		{
			"bufferView":0,
			"componentType":5126,
			"count":559,
			"max":[
				0.9999997019767761,
				1,
				0.9999993443489075
			],
			"min":[
				-0.9999990463256836,
				-1,
				-1
			],
			"type":"VEC3"
		},
		{
			"bufferView":1,
			"componentType":5126,
			"count":559,
			"type":"VEC3"
		},
		{
			"bufferView":2,
			"componentType":5126,
			"count":559,
			"type":"VEC2"
		},
		{
			"bufferView":3,
			"componentType":5126,
			"count":559,
			"type":"VEC4"
		},
		{
			"bufferView":4,
			"componentType":5123,
			"count":2880,
			"type":"SCALAR"
		},
		{
			"bufferView":5,
			"componentType":5126,
			"count":4,
			"max":[
				1,
				0,
				1
			],
			"min":[
				-1,
				0,
				-1
			],
			"type":"VEC3"
		},
		{
			"bufferView":6,
			"componentType":5126,
			"count":4,
			"type":"VEC3"
		},
		{
			"bufferView":7,
			"componentType":5126,
			"count":4,
			"type":"VEC2"
		},
		{
			"bufferView":8,
			"componentType":5126,
			"count":4,
			"type":"VEC4"
		},
		{
			"bufferView":9,
			"componentType":5123,
			"count":6,
			"type":"SCALAR"
		}
	],
	"bufferViews":[
		{
			"buffer":0,
			"byteLength":6708,
			"byteOffset":0,
			"target":34962
		},
		{
			"buffer":0,
			"byteLength":6708,
			"byteOffset":6708,
			"target":34962
		},
		{
			"buffer":0,
			"byteLength":4472,
			"byteOffset":13416,
			"target":34962
		},
		{
			"buffer":0,
			"byteLength":8944,
			"byteOffset":17888,
			"target":34962
		},
		{
			"buffer":0,
			"byteLength":5760,
			"byteOffset":26832,
			"target":34963
		},
		{
			"buffer":0,
			"byteLength":48,
			"byteOffset":32592,
			"target":34962
		},
		{
			"buffer":0,
			"byteLength":48,
			"byteOffset":32640,
			"target":34962
		},
		{
			"buffer":0,
			"byteLength":32,
			"byteOffset":32688,
			"target":34962
		},
		{
			"buffer":0,
			"byteLength":64,
			"byteOffset":32720,
			"target":34962
		},
		{
			"buffer":0,
			"byteLength":12,
			"byteOffset":32784,
			"target":34963
		}
	],
	"buffers":[
		{
			"byteLength":32796,
			"uri":"data:application/octet-stream;base64,"
		}
	]
}
