{
    "asset" : {
        "generator" : "Khronos glTF Blender I/O v3.4.50",
        "version" : "2.0"
    },
    "scene" : 0,
    "scenes" : [
        {
            "name" : "Scene",
            "nodes" : [
                0,
                1
            ]
        }
    ],
    "nodes" : [
        {
            "mesh" : 0,
            "name" : "skybox",
            "scale" : [
                100,
                100,
                100
            ]
        },
        {
            "mesh" : 1,
            "name" : "Sphere"
        }
    ],
    "materials" : [
        {
            "emissiveFactor" : [
                1,
                1,
                1
            ],
            "emissiveTexture" : {
                "index" : 0
            },
            "name" : "Skybox",
            "pbrMetallicRoughness" : {
                "baseColorFactor" : [
                    0,
                    0,
                    0,
                    1
                ]
            }
        },
        {
            "doubleSided" : true,
            "name" : "sphere",
            "pbrMetallicRoughness" : {
                "baseColorFactor" : [
                    0.7991032004356384,
                    0,
                    0.0331047922372818,
                    1
                ],
                "metallicFactor" : 0,
                "roughnessFactor" : 0.5
            }
        }
    ],
    "meshes" : [
        {
            "name" : "Sphere.001",
            "primitives" : [
                {
                    "attributes" : {
                        "POSITION" : 0,
                        "TEXCOORD_0" : 1,
                        "NORMAL" : 2,
                        "TANGENT" : 3
                    },
                    "indices" : 4,
                    "material" : 0
                }
            ]
        },
        {
            "name" : "Sphere.006",
            "primitives" : [
                {
                    "attributes" : {
                        "POSITION" : 5,
                        "TEXCOORD_0" : 6,
                        "NORMAL" : 7,
                        "TANGENT" : 8
                    },
                    "indices" : 9,
                    "material" : 1
                }
            ]
        }
    ],
    "textures" : [
        {
            "sampler" : 0,
            "source" : 0
        }
    ],
    "images" : [
        {
            "mimeType" : "image/jpeg",
            "name" : "basic-skybox",
            "uri" : "basic-skybox.jpg"
        }
    ],
    "accessors" : [
        {
            "bufferView" : 0,
            "componentType" : 5126,
            "count" : 2856,
            "max" : [
                0.9999997019767761,
                1,
                0.9999993443489075
            ],
            "min" : [
                -0.9999990463256836,
                -1,
                -1
            ],
            "type" : "VEC3"
        },
        {
            "bufferView" : 1,
            "componentType" : 5126,
            "count" : 2856,
            "type" : "VEC2"
        },
        {
            "bufferView" : 2,
            "componentType" : 5126,
            "count" : 2856,
            "type" : "VEC3"
        },
        {
            "bufferView" : 3,
            "componentType" : 5126,
            "count" : 2856,
            "type" : "VEC4"
        },
        {
            "bufferView" : 4,
            "componentType" : 5123,
            "count" : 2880,
            "type" : "SCALAR"
        },
        {
            "bufferView" : 5,
            "componentType" : 5126,
            "count" : 480,
            "max" : [
                1,
                1,
                1
            ],
            "min" : [
                -0.9999999403953552,
                -1,
                -1
            ],
            "type" : "VEC3"
        },
        {
            "bufferView" : 6,
            "componentType" : 5126,
            "count" : 480,
            "type" : "VEC2"
        },
        {
            "bufferView" : 7,
            "componentType" : 5126,
            "count" : 480,
            "type" : "VEC3"
        },
        {
            "bufferView" : 8,
            "componentType" : 5126,
            "count" : 480,
            "type" : "VEC4"
        },
        {
            "bufferView" : 9,
            "componentType" : 5123,
            "count" : 672,
            "type" : "SCALAR"
        }
    ],
    "bufferViews" : [
        {
            "buffer" : 0,
            "byteLength" : 34272,
            "byteOffset" : 0,
            "target" : 34962
        },
        {
            "buffer" : 0,
            "byteLength" : 22848,
            "byteOffset" : 34272,
            "target" : 34962
        },
        {
            "buffer" : 0,
            "byteLength" : 34272,
            "byteOffset" : 57120,
            "target" : 34962
        },
        {
            "buffer" : 0,
            "byteLength" : 45696,
            "byteOffset" : 91392,
            "target" : 34962
        },
        {
            "buffer" : 0,
            "byteLength" : 5760,
            "byteOffset" : 137088,
            "target" : 34963
        },
        {
            "buffer" : 0,
            "byteLength" : 5760,
            "byteOffset" : 142848,
            "target" : 34962
        },
        {
            "buffer" : 0,
            "byteLength" : 3840,
            "byteOffset" : 148608,
            "target" : 34962
        },
        {
            "buffer" : 0,
            "byteLength" : 5760,
            "byteOffset" : 152448,
            "target" : 34962
        },
        {
            "buffer" : 0,
            "byteLength" : 7680,
            "byteOffset" : 158208,
            "target" : 34962
        },
        {
            "buffer" : 0,
            "byteLength" : 1344,
            "byteOffset" : 165888,
            "target" : 34963
        }
    ],
    "samplers" : [
        {
            "magFilter" : 9729,
            "minFilter" : 9987
        }
    ],
    "buffers" : [
        {
            "byteLength" : 167232,
            "uri" : "sphere_4.bin"
        }
    ]
}
